<svg data-v-423bf9ae="" xmlns="http://www.w3.org/2000/svg" viewBox="0 0 2994 2862" class="iconLeftSlogan"><!----><!----><!----><g data-v-423bf9ae="" id="d04c71fa-0e30-404b-a808-2262cdd447f7" fill="#FFFFFF" transform="matrix(4.477611541748047,0,0,4.477611541748047,2655.941650390625,-13.208953857421875)"><path d="M8.79 13.55L7.71 11.10L2.51 11.10L1.43 13.55L-0.01 13.55L4.42 3.75L5.81 3.75L10.26 13.55L8.79 13.55ZM3.00 9.98L7.22 9.98L5.11 5.18L3.00 9.98ZM15.46 6.06Q16.53 6.06 17.39 6.54Q18.24 7.01 18.73 7.87Q19.21 8.72 19.21 9.84L19.21 9.84Q19.21 10.96 18.73 11.82Q18.24 12.68 17.39 13.16Q16.53 13.64 15.46 13.64L15.46 13.64Q14.63 13.64 13.94 13.31Q13.26 12.99 12.81 12.38L12.81 12.38L12.81 13.55L11.52 13.55L11.52 3.16L12.87 3.16L12.87 7.25Q13.31 6.66 13.99 6.36Q14.66 6.06 15.46 6.06L15.46 6.06ZM15.34 12.46Q16.06 12.46 16.63 12.13Q17.19 11.80 17.52 11.21Q17.85 10.61 17.85 9.84L17.85 9.84Q17.85 9.07 17.52 8.48Q17.19 7.88 16.63 7.56Q16.06 7.24 15.34 7.24L15.34 7.24Q14.64 7.24 14.07 7.56Q13.50 7.88 13.17 8.48Q12.85 9.07 12.85 9.84L12.85 9.84Q12.85 10.61 13.17 11.21Q13.50 11.80 14.07 12.13Q14.64 12.46 15.34 12.46L15.34 12.46ZM26.11 6.13L27.43 6.13L23.83 14.29Q23.35 15.43 22.71 15.89Q22.08 16.35 21.18 16.35L21.18 16.35Q20.64 16.35 20.13 16.18Q19.61 16.00 19.28 15.67L19.28 15.67L19.85 14.66Q20.43 15.20 21.18 15.20L21.18 15.20Q21.67 15.20 22.00 14.95Q22.33 14.69 22.60 14.06L22.60 14.06L22.83 13.54L19.56 6.13L20.96 6.13L23.55 12.07L26.11 6.13ZM30.72 13.64Q29.81 13.64 28.97 13.39Q28.13 13.15 27.65 12.77L27.65 12.77L28.21 11.70Q28.70 12.05 29.40 12.26Q30.10 12.47 30.81 12.47L30.81 12.47Q32.58 12.47 32.58 11.47L32.58 11.47Q32.58 11.13 32.34 10.93Q32.10 10.74 31.75 10.65Q31.39 10.56 30.73 10.44L30.73 10.44Q29.83 10.30 29.27 10.12Q28.70 9.94 28.29 9.51Q27.89 9.07 27.89 8.29L27.89 8.29Q27.89 7.28 28.73 6.67Q29.57 6.06 30.98 6.06L30.98 6.06Q31.72 6.06 32.47 6.24Q33.21 6.43 33.68 6.73L33.68 6.73L33.11 7.80Q32.20 7.21 30.97 7.21L30.97 7.21Q30.11 7.21 29.67 7.49Q29.22 7.77 29.22 8.23L29.22 8.23Q29.22 8.60 29.47 8.81Q29.72 9.02 30.09 9.11Q30.46 9.21 31.14 9.34L31.14 9.34Q32.03 9.49 32.59 9.67Q33.14 9.84 33.53 10.26Q33.92 10.68 33.92 11.44L33.92 11.44Q33.92 12.45 33.06 13.04Q32.20 13.64 30.72 13.64L30.72 13.64ZM37.73 13.64Q36.82 13.64 35.98 13.39Q35.14 13.15 34.66 12.77L34.66 12.77L35.22 11.70Q35.71 12.05 36.41 12.26Q37.11 12.47 37.83 12.47L37.83 12.47Q39.59 12.47 39.59 11.47L39.59 11.47Q39.59 11.13 39.35 10.93Q39.12 10.74 38.76 10.65Q38.40 10.56 37.74 10.44L37.74 10.44Q36.85 10.30 36.28 10.12Q35.71 9.94 35.31 9.51Q34.90 9.07 34.90 8.29L34.90 8.29Q34.90 7.28 35.74 6.67Q36.58 6.06 38.00 6.06L38.00 6.06Q38.74 6.06 39.48 6.24Q40.22 6.43 40.70 6.73L40.70 6.73L40.12 7.80Q39.21 7.21 37.98 7.21L37.98 7.21Q37.13 7.21 36.68 7.49Q36.23 7.77 36.23 8.23L36.23 8.23Q36.23 8.60 36.48 8.81Q36.74 9.02 37.11 9.11Q37.48 9.21 38.15 9.34L38.15 9.34Q39.05 9.49 39.60 9.67Q40.15 9.84 40.54 10.26Q40.94 10.68 40.94 11.44L40.94 11.44Q40.94 12.45 40.08 13.04Q39.21 13.64 37.73 13.64L37.73 13.64ZM42.62 13.55L42.62 6.13L43.96 6.13L43.96 13.55L42.62 13.55ZM43.29 4.70Q42.90 4.70 42.64 4.45Q42.38 4.20 42.38 3.84L42.38 3.84Q42.38 3.47 42.64 3.21Q42.90 2.95 43.29 2.95L43.29 2.95Q43.68 2.95 43.94 3.20Q44.20 3.44 44.20 3.81L44.20 3.81Q44.20 4.19 43.94 4.45Q43.68 4.70 43.29 4.70L43.29 4.70ZM50.48 6.06Q51.90 6.06 52.73 6.88Q53.56 7.70 53.56 9.28L53.56 9.28L53.56 13.55L52.22 13.55L52.22 9.44Q52.22 8.36 51.70 7.81Q51.18 7.27 50.22 7.27L50.22 7.27Q49.13 7.27 48.50 7.90Q47.87 8.54 47.87 9.73L47.87 9.73L47.87 13.55L46.52 13.55L46.52 6.13L47.81 6.13L47.81 7.25Q48.22 6.68 48.91 6.37Q49.60 6.06 50.48 6.06L50.48 6.06ZM56.06 13.55L56.06 6.13L57.40 6.13L57.40 13.55L56.06 13.55ZM56.73 4.70Q56.34 4.70 56.08 4.45Q55.82 4.20 55.82 3.84L55.82 3.84Q55.82 3.47 56.08 3.21Q56.34 2.95 56.73 2.95L56.73 2.95Q57.12 2.95 57.38 3.20Q57.64 3.44 57.64 3.81L57.64 3.81Q57.64 4.19 57.38 4.45Q57.12 4.70 56.73 4.70L56.73 4.70ZM62.66 6.06Q64.20 6.06 65.02 6.82Q65.84 7.57 65.84 9.07L65.84 9.07L65.84 13.55L64.57 13.55L64.57 12.57Q64.23 13.09 63.61 13.36Q62.99 13.64 62.13 13.64L62.13 13.64Q60.89 13.64 60.14 13.03Q59.39 12.43 59.39 11.45L59.39 11.45Q59.39 10.47 60.10 9.88Q60.82 9.28 62.37 9.28L62.37 9.28L64.50 9.28L64.50 9.02Q64.50 8.15 63.99 7.69Q63.49 7.22 62.51 7.22L62.51 7.22Q61.85 7.22 61.22 7.44Q60.59 7.66 60.16 8.02L60.16 8.02L59.60 7.01Q60.17 6.55 60.97 6.31Q61.77 6.06 62.66 6.06L62.66 6.06ZM62.36 12.60Q63.13 12.60 63.69 12.26Q64.25 11.91 64.50 11.28L64.50 11.28L64.50 10.25L62.43 10.25Q60.72 10.25 60.72 11.40L60.72 11.40Q60.72 11.96 61.15 12.28Q61.59 12.60 62.36 12.60L62.36 12.60ZM72.30 6.06Q73.71 6.06 74.54 6.88Q75.38 7.70 75.38 9.28L75.38 9.28L75.38 13.55L74.03 13.55L74.03 9.44Q74.03 8.36 73.51 7.81Q73.00 7.27 72.03 7.27L72.03 7.27Q70.94 7.27 70.31 7.90Q69.68 8.54 69.68 9.73L69.68 9.73L69.68 13.55L68.33 13.55L68.33 6.13L69.62 6.13L69.62 7.25Q70.03 6.68 70.72 6.37Q71.41 6.06 72.30 6.06L72.30 6.06Z"></path></g><!----><g data-v-423bf9ae="" id="2e621e2e-2788-48c5-85ea-2526b9cbe110" transform="matrix(5.638754844665527,0,0,5.638754844665527,-0.9759982228279114,-0.8885325193405151)" stroke="none" fill="#81E291"><path d="M437.904 1.76c-2.035.933-7.376 5.681-13.31 11.786-11.277 11.7-16.703 15.684-23.994 17.55-11.7 2.967-21.366.847-42.307-9.58-12.124-6.02-15.176-7.292-18.652-7.292-3.816-.085-4.409.17-6.105 2.713-2.458 3.56-3.306 10.174-2.543 20.009.678 10.767 2.882 19.754 9.835 40.865 6.782 20.687 8.563 27.978 8.732 35.948.17 7.97-1.61 13.226-5.68 17.38-4.663 4.579-8.733 5.85-29.759 9.327-32.387 5.426-53.328 11.615-73.252 21.535-39.51 19.754-69.268 54.939-87.836 103.944-4.748 12.547-8.224 24.163-15.77 52.82-9.834 37.389-10.682 39.254-25.773 55.024-19.585 20.517-34.422 30.097-68.76 44.341-17.634 7.291-25.265 11.53-30.86 16.957C4.324 442.378 1.44 449.415.34 462.64c-1.273 16.024 7.714 29.08 26.79 38.915 3.985 2.035 9.666 4.41 12.718 5.172 7.885 2.035 14.413.848 14.413-2.628 0-.678-3.985-5.426-8.817-10.598-12.294-12.972-15.261-19.84-12.04-28.317 2.629-6.698 14.244-15.855 28.064-22.044 6.613-2.967 45.528-18.483 54.26-21.704 21.96-8.055 31.54-7.716 42.816 1.78l4.07 3.391 82.918-.17 83.002-.254-.254-6.358c-.763-16.533-5.087-19.84-27.555-21.111-6.358-.34-11.87-.848-12.039-1.102-.763-.679 2.544-8.479 8.055-19.331 9.834-19.246 23.315-37.559 31.03-42.052 3.476-2.035 4.409-2.205 10.768-1.866 7.97.424 12.463 2.29 16.532 6.953 3.392 3.9 4.324 7.121 5.68 20.093.848 7.885 1.781 12.379 3.731 17.296 9.665 25.01 38.492 52.65 54.6 52.226 5.511-.085 7.97-1.78 11.022-7.715 2.713-5.341 3.052-11.36.933-15.515-.763-1.526-5.172-6.613-9.665-11.361-20.094-20.857-26.283-37.39-26.283-70.285 0-33.405 6.528-57.907 20.856-78.085 2.035-2.883 8.903-10.853 15.261-17.805 20.263-22.128 24.248-30.691 24.248-51.972-.085-12.293-.932-18.822-4.493-32.048-6.02-22.806-3.985-33.828 8.732-48.072 8.648-9.75 9.411-13.141 6.36-29.335-3.392-17.72-4.664-25.52-6.444-41.035-2.29-19.5-3.985-23.824-10.005-26.367-3.73-1.611-7.63-1.442-11.7.424z"></path></g><!----><g data-v-423bf9ae="" id="c6aa0dd3-a1a3-436d-b6f3-76bc29ab3160" fill="#FFFFFF" transform="matrix(3.469343662261963,0,0,3.469343662261963,2653.815185546875,50.285831451416016)"><path d="M3.53 13.16Q2.46 13.16 1.68 12.74Q0.90 12.32 0.60 11.52L0.60 11.52L1.18 11.14Q1.39 11.84 2.03 12.19Q2.67 12.54 3.61 12.54L3.61 12.54Q4.56 12.54 5.10 12.18Q5.64 11.82 5.64 11.21L5.64 11.21Q5.64 10.70 5.18 10.39Q4.72 10.08 3.56 9.87L3.56 9.87Q2.09 9.60 1.48 9.16Q0.88 8.71 0.88 7.88L0.88 7.88Q0.88 7.34 1.22 6.87Q1.55 6.41 2.17 6.15Q2.79 5.88 3.57 5.88L3.57 5.88Q4.68 5.88 5.34 6.30Q6.01 6.72 6.26 7.59L6.26 7.59L5.66 7.94Q5.26 6.50 3.57 6.50L3.57 6.50Q3.01 6.50 2.56 6.68Q2.10 6.86 1.84 7.16Q1.58 7.46 1.58 7.81L1.58 7.81Q1.58 8.39 2.06 8.71Q2.53 9.03 3.74 9.24L3.74 9.24Q5.17 9.48 5.75 9.93Q6.34 10.37 6.34 11.19L6.34 11.19Q6.34 12.08 5.58 12.62Q4.82 13.16 3.53 13.16L3.53 13.16ZM20.43 6.02L21.13 6.02L21.13 13.02L20.50 13.02L20.47 11.63Q20.12 12.38 19.42 12.77Q18.72 13.16 17.77 13.16L17.77 13.16Q16.62 13.16 15.93 12.52Q15.25 11.89 15.25 10.64L15.25 10.64L15.25 6.02L15.95 6.02L15.95 10.47Q15.95 12.54 17.88 12.54L17.88 12.54Q18.65 12.54 19.23 12.21Q19.81 11.87 20.12 11.30Q20.43 10.72 20.43 10.04L20.43 10.04L20.43 6.02ZM35.95 2.80L36.65 2.80L36.65 13.02L36.02 13.02L35.98 11.45Q35.69 12.25 35 12.71Q34.31 13.16 33.38 13.16L33.38 13.16Q31.89 13.16 31.03 12.19Q30.17 11.23 30.17 9.52L30.17 9.52Q30.17 7.81 31.03 6.85Q31.89 5.88 33.38 5.88L33.38 5.88Q34.29 5.88 34.96 6.31Q35.63 6.75 35.95 7.50L35.95 7.50L35.95 2.80ZM33.46 12.54Q34.55 12.54 35.22 11.81Q35.90 11.07 35.95 9.81L35.95 9.81L35.95 9.23Q35.88 7.97 35.22 7.23Q34.55 6.50 33.46 6.50L33.46 6.50Q32.24 6.50 31.56 7.30Q30.87 8.11 30.87 9.52L30.87 9.52Q30.87 10.93 31.56 11.74Q32.24 12.54 33.46 12.54L33.46 12.54ZM49.03 5.88Q50.58 5.88 51.47 6.85Q52.36 7.83 52.36 9.52L52.36 9.52Q52.36 11.21 51.47 12.19Q50.58 13.16 49.03 13.16L49.03 13.16Q47.47 13.16 46.58 12.19Q45.70 11.21 45.70 9.52L45.70 9.52Q45.70 7.83 46.58 6.85Q47.47 5.88 49.03 5.88L49.03 5.88ZM49.03 6.48Q47.80 6.48 47.10 7.29Q46.40 8.11 46.40 9.52L46.40 9.52Q46.40 10.93 47.10 11.75Q47.80 12.56 49.03 12.56L49.03 12.56Q50.26 12.56 50.96 11.75Q51.66 10.93 51.66 9.52L51.66 9.52Q51.66 8.11 50.96 7.29Q50.26 6.48 49.03 6.48L49.03 6.48ZM75.67 6.08L76.40 6.92L77.43 8.37L76.97 8.71L75.91 7.28L75.33 6.31L74.77 7.28L73.71 8.71L73.25 8.37L74.28 6.92L75.01 6.08L73.92 5.82L72.24 5.26L72.41 4.72L74.10 5.25L75.14 5.68L75.04 4.58L75.04 2.80L75.64 2.80L75.64 4.58L75.54 5.68L76.57 5.25L78.27 4.72L78.44 5.26L76.76 5.82L75.67 6.08Z"></path></g></svg>